<svg xmlns="http://www.w3.org/2000/svg" xmlns:xlink="http://www.w3.org/1999/xlink" width="599" zoomAndPan="magnify" viewBox="0 0 449.25 125.999998" height="168" preserveAspectRatio="xMidYMid meet" version="1.0"><defs><g/></defs><g fill="#000000" fill-opacity="1"><g transform="translate(20.366228, 75.887431)"><g><path d="M 34.3125 -24.953125 C 37.375 -22.078125 38.90625 -18.597656 38.90625 -14.515625 L 38.90625 0 L 29.875 0 L 29.875 -14.515625 C 29.875 -16.015625 29.332031 -17.304688 28.25 -18.390625 C 27.175781 -19.472656 25.882812 -20.015625 24.375 -20.015625 L 12.828125 -20.015625 L 12.828125 0 L 3.875 0 L 3.875 -49.046875 L 23.53125 -49.046875 C 27.53125 -49.046875 30.945312 -47.625 33.78125 -44.78125 C 36.625 -41.9375 38.046875 -38.519531 38.046875 -34.53125 C 38.046875 -30.914062 36.800781 -27.722656 34.3125 -24.953125 Z M 15.078125 -28.96875 L 23.53125 -28.96875 C 25.039062 -28.96875 26.332031 -29.519531 27.40625 -30.625 C 28.488281 -31.726562 29.03125 -33.039062 29.03125 -34.5625 C 29.03125 -36.09375 28.488281 -37.394531 27.40625 -38.46875 C 26.332031 -39.550781 25.039062 -40.09375 23.53125 -40.09375 L 12.828125 -40.09375 L 12.828125 -28.96875 Z M 15.078125 -28.96875 "/></g></g></g><g fill="#000000" fill-opacity="1"><g transform="translate(62.077909, 75.887431)"><g><path d="M 6.9375 -29.953125 C 10.25 -33.285156 14.242188 -34.953125 18.921875 -34.953125 C 23.597656 -34.953125 27.59375 -33.285156 30.90625 -29.953125 C 34.21875 -26.617188 35.875 -22.625 35.875 -17.96875 L 35.875 -16.140625 C 35.875 -11.484375 34.21875 -7.488281 30.90625 -4.15625 C 27.59375 -0.820312 23.597656 0.84375 18.921875 0.84375 C 14.242188 0.84375 10.25 -0.820312 6.9375 -4.15625 C 3.625 -7.488281 1.96875 -11.484375 1.96875 -16.140625 L 1.96875 -17.96875 C 1.96875 -22.625 3.625 -26.617188 6.9375 -29.953125 Z M 26.921875 -16.140625 L 26.921875 -17.96875 C 26.921875 -20.175781 26.132812 -22.066406 24.5625 -23.640625 C 22.988281 -25.210938 21.109375 -26 18.921875 -26 C 16.734375 -26 14.851562 -25.210938 13.28125 -23.640625 C 11.707031 -22.066406 10.921875 -20.175781 10.921875 -17.96875 L 10.921875 -16.140625 C 10.921875 -13.929688 11.707031 -12.050781 13.28125 -10.5 C 14.851562 -8.945312 16.734375 -8.171875 18.921875 -8.171875 C 21.109375 -8.171875 22.988281 -8.945312 24.5625 -10.5 C 26.132812 -12.050781 26.921875 -13.929688 26.921875 -16.140625 Z M 26.921875 -16.140625 "/></g></g></g><g fill="#000000" fill-opacity="1"><g transform="translate(99.984791, 75.887431)"><g><path d="M 18.953125 -8.171875 C 20.785156 -8.171875 22.414062 -8.734375 23.84375 -9.859375 C 25.28125 -10.992188 26.210938 -12.429688 26.640625 -14.171875 L 35.09375 -11 C 33.96875 -7.519531 31.921875 -4.675781 28.953125 -2.46875 C 25.992188 -0.257812 22.660156 0.84375 18.953125 0.84375 C 14.253906 0.84375 10.25 -0.820312 6.9375 -4.15625 C 3.625 -7.488281 1.96875 -11.484375 1.96875 -16.140625 L 1.96875 -17.96875 C 1.96875 -22.625 3.625 -26.617188 6.9375 -29.953125 C 10.25 -33.285156 14.253906 -34.953125 18.953125 -34.953125 C 22.660156 -34.953125 25.992188 -33.847656 28.953125 -31.640625 C 31.921875 -29.429688 33.96875 -26.585938 35.09375 -23.109375 L 26.640625 -19.9375 C 26.210938 -21.675781 25.28125 -23.117188 23.84375 -24.265625 C 22.414062 -25.421875 20.785156 -26 18.953125 -26 C 17.828125 -26 16.769531 -25.785156 15.78125 -25.359375 C 14.800781 -24.941406 13.957031 -24.367188 13.25 -23.640625 C 12.539062 -22.910156 11.972656 -22.050781 11.546875 -21.0625 C 11.128906 -20.082031 10.921875 -19.050781 10.921875 -17.96875 L 10.921875 -16.140625 C 10.921875 -13.929688 11.707031 -12.050781 13.28125 -10.5 C 14.851562 -8.945312 16.742188 -8.171875 18.953125 -8.171875 Z M 18.953125 -8.171875 "/></g></g></g><g fill="#000000" fill-opacity="1"><g transform="translate(136.693864, 75.887431)"><g><path d="M 23.53125 -13.25 L 35.65625 0 L 23.53125 0 L 16.90625 -7.1875 C 14.46875 -9.863281 12.96875 -12.257812 12.40625 -14.375 L 12.40625 0 L 3.453125 0 L 3.453125 -49.046875 L 12.40625 -49.046875 L 12.40625 -20.71875 C 12.96875 -22.644531 14.46875 -25.039062 16.90625 -27.90625 L 21.84375 -34.109375 L 33.328125 -34.109375 L 23.8125 -22.265625 C 22.59375 -20.804688 21.804688 -19.785156 21.453125 -19.203125 C 21.097656 -18.617188 20.921875 -18.066406 20.921875 -17.546875 C 20.921875 -17.210938 20.941406 -16.925781 20.984375 -16.6875 C 21.035156 -16.457031 21.257812 -16.050781 21.65625 -15.46875 C 22.0625 -14.882812 22.6875 -14.144531 23.53125 -13.25 Z M 23.53125 -13.25 "/></g></g></g><g fill="#000000" fill-opacity="1"><g transform="translate(172.768823, 75.887431)"><g><path d="M 37.484375 -31.359375 C 39.878906 -33.753906 42.753906 -34.953125 46.109375 -34.953125 C 49.472656 -34.953125 52.34375 -33.753906 54.71875 -31.359375 C 57.09375 -28.960938 58.28125 -26.097656 58.28125 -22.765625 L 58.28125 0 L 49.328125 0 L 49.328125 -22.765625 C 49.328125 -23.648438 49.007812 -24.410156 48.375 -25.046875 C 47.738281 -25.679688 46.972656 -26 46.078125 -26 C 45.191406 -26 44.429688 -25.679688 43.796875 -25.046875 C 43.160156 -24.410156 42.84375 -23.648438 42.84375 -22.765625 L 42.84375 -11.34375 C 42.84375 -8.007812 41.65625 -5.144531 39.28125 -2.75 C 36.914062 -0.351562 34.050781 0.84375 30.6875 0.84375 C 27.332031 0.84375 24.46875 -0.351562 22.09375 -2.75 C 19.71875 -5.144531 18.53125 -8.007812 18.53125 -11.34375 L 18.53125 -22.765625 C 18.53125 -23.648438 18.210938 -24.410156 17.578125 -25.046875 C 16.941406 -25.679688 16.175781 -26 15.28125 -26 C 14.394531 -26 13.632812 -25.679688 13 -25.046875 C 12.363281 -24.410156 12.046875 -23.648438 12.046875 -22.765625 L 12.046875 0 L 3.09375 0 L 3.09375 -22.765625 C 3.09375 -26.097656 4.28125 -28.960938 6.65625 -31.359375 C 9.03125 -33.753906 11.894531 -34.953125 15.25 -34.953125 C 18.613281 -34.953125 21.492188 -33.753906 23.890625 -31.359375 C 26.285156 -28.960938 27.484375 -26.097656 27.484375 -22.765625 L 27.484375 -11.34375 C 27.484375 -10.445312 27.800781 -9.691406 28.4375 -9.078125 C 29.070312 -8.472656 29.832031 -8.171875 30.71875 -8.171875 C 31.613281 -8.171875 32.363281 -8.472656 32.96875 -9.078125 C 33.582031 -9.691406 33.890625 -10.445312 33.890625 -11.34375 L 33.890625 -22.765625 C 33.890625 -26.097656 35.085938 -28.960938 37.484375 -31.359375 Z M 37.484375 -31.359375 "/></g></g></g><g fill="#000000" fill-opacity="1"><g transform="translate(234.208992, 75.887431)"><g><path d="M 6.9375 -29.953125 C 10.25 -33.285156 14.242188 -34.953125 18.921875 -34.953125 C 23.597656 -34.953125 27.59375 -33.285156 30.90625 -29.953125 C 34.21875 -26.617188 35.875 -22.625 35.875 -17.96875 L 35.875 -16.140625 C 35.875 -15.242188 35.78125 -14.300781 35.59375 -13.3125 L 11.484375 -13.3125 C 12.046875 -11.769531 13.007812 -10.523438 14.375 -9.578125 C 15.738281 -8.640625 17.265625 -8.171875 18.953125 -8.171875 C 20.929688 -8.171875 22.691406 -8.851562 24.234375 -10.21875 L 33.1875 -6.96875 C 31.632812 -4.570312 29.601562 -2.671875 27.09375 -1.265625 C 24.582031 0.140625 21.867188 0.84375 18.953125 0.84375 C 14.253906 0.84375 10.25 -0.820312 6.9375 -4.15625 C 3.625 -7.488281 1.96875 -11.484375 1.96875 -16.140625 L 1.96875 -17.96875 C 1.96875 -22.625 3.625 -26.617188 6.9375 -29.953125 Z M 11.484375 -20.78125 L 26.359375 -20.78125 C 25.796875 -22.332031 24.832031 -23.578125 23.46875 -24.515625 C 22.101562 -25.460938 20.585938 -25.9375 18.921875 -25.9375 C 17.253906 -25.9375 15.738281 -25.460938 14.375 -24.515625 C 13.007812 -23.578125 12.046875 -22.332031 11.484375 -20.78125 Z M 11.484375 -20.78125 "/></g></g></g><g fill="#000000" fill-opacity="1"><g transform="translate(271.97496, 75.887431)"><g><path d="M 19.65625 -34.109375 L 26.984375 -34.109375 L 26.984375 -25.09375 L 19.65625 -25.09375 C 17.445312 -25.09375 15.554688 -24.316406 13.984375 -22.765625 C 12.410156 -21.210938 11.625 -19.332031 11.625 -17.125 L 11.625 0 L 2.671875 0 L 2.671875 -17.125 C 2.671875 -21.769531 4.328125 -25.757812 7.640625 -29.09375 C 10.953125 -32.4375 14.957031 -34.109375 19.65625 -34.109375 Z M 19.65625 -34.109375 "/></g></g></g><g fill="#000000" fill-opacity="1"><g transform="translate(299.876702, 75.887431)"><g><path d="M 18.953125 -8.171875 C 20.785156 -8.171875 22.414062 -8.734375 23.84375 -9.859375 C 25.28125 -10.992188 26.210938 -12.429688 26.640625 -14.171875 L 35.09375 -11 C 33.96875 -7.519531 31.921875 -4.675781 28.953125 -2.46875 C 25.992188 -0.257812 22.660156 0.84375 18.953125 0.84375 C 14.253906 0.84375 10.25 -0.820312 6.9375 -4.15625 C 3.625 -7.488281 1.96875 -11.484375 1.96875 -16.140625 L 1.96875 -17.96875 C 1.96875 -22.625 3.625 -26.617188 6.9375 -29.953125 C 10.25 -33.285156 14.253906 -34.953125 18.953125 -34.953125 C 22.660156 -34.953125 25.992188 -33.847656 28.953125 -31.640625 C 31.921875 -29.429688 33.96875 -26.585938 35.09375 -23.109375 L 26.640625 -19.9375 C 26.210938 -21.675781 25.28125 -23.117188 23.84375 -24.265625 C 22.414062 -25.421875 20.785156 -26 18.953125 -26 C 17.828125 -26 16.769531 -25.785156 15.78125 -25.359375 C 14.800781 -24.941406 13.957031 -24.367188 13.25 -23.640625 C 12.539062 -22.910156 11.972656 -22.050781 11.546875 -21.0625 C 11.128906 -20.082031 10.921875 -19.050781 10.921875 -17.96875 L 10.921875 -16.140625 C 10.921875 -13.929688 11.707031 -12.050781 13.28125 -10.5 C 14.851562 -8.945312 16.742188 -8.171875 18.953125 -8.171875 Z M 18.953125 -8.171875 "/></g></g></g><g fill="#000000" fill-opacity="1"><g transform="translate(336.585775, 75.887431)"><g><path d="M 20.4375 -34.953125 C 25.082031 -34.953125 29.0625 -33.285156 32.375 -29.953125 C 35.6875 -26.617188 37.34375 -22.625 37.34375 -17.96875 L 37.34375 0 L 28.40625 0 L 28.40625 -17.96875 C 28.40625 -20.175781 27.613281 -22.066406 26.03125 -23.640625 C 24.457031 -25.210938 22.578125 -26 20.390625 -26 C 18.210938 -26 16.335938 -25.210938 14.765625 -23.640625 C 13.191406 -22.066406 12.40625 -20.175781 12.40625 -17.96875 L 12.40625 0 L 3.453125 0 L 3.453125 -49.046875 L 12.40625 -49.046875 L 12.40625 -32.90625 C 14.894531 -34.269531 17.570312 -34.953125 20.4375 -34.953125 Z M 20.4375 -34.953125 "/></g></g></g><g fill="#000000" fill-opacity="1"><g transform="translate(376.747361, 75.887431)"><g><path d="M 19.59375 -8.953125 L 23.46875 -8.953125 L 23.46875 0 L 19.59375 0 C 14.894531 0 10.890625 -1.65625 7.578125 -4.96875 C 4.265625 -8.28125 2.609375 -12.285156 2.609375 -16.984375 L 2.609375 -46.9375 L 11.5625 -46.9375 L 11.5625 -34.109375 L 21.78125 -34.109375 L 21.78125 -25.09375 L 11.5625 -25.09375 L 11.5625 -16.984375 C 11.5625 -14.773438 12.347656 -12.882812 13.921875 -11.3125 C 15.492188 -9.738281 17.382812 -8.953125 19.59375 -8.953125 Z M 19.59375 -8.953125 "/></g></g></g><g fill="#000000" fill-opacity="1"><g transform="translate(402.112571, 75.887431)"><g><path d="M 19.59375 -8.953125 L 23.46875 -8.953125 L 23.46875 0 L 19.59375 0 C 14.894531 0 10.890625 -1.65625 7.578125 -4.96875 C 4.265625 -8.28125 2.609375 -12.285156 2.609375 -16.984375 L 2.609375 -46.9375 L 11.5625 -46.9375 L 11.5625 -34.109375 L 21.78125 -34.109375 L 21.78125 -25.09375 L 11.5625 -25.09375 L 11.5625 -16.984375 C 11.5625 -14.773438 12.347656 -12.882812 13.921875 -11.3125 C 15.492188 -9.738281 17.382812 -8.953125 19.59375 -8.953125 Z M 19.59375 -8.953125 "/></g></g></g></svg>